<svg xmlns="http://www.w3.org/2000/svg" viewBox="0 0 546.84 533.33"><defs><style>.cls-1,.cls-2{fill:#fff;}.cls-1{fill-rule:evenodd;}</style></defs><g id="Capa_2" data-name="Capa 2"><g id="Capa_1-2" data-name="Capa 1"><path class="cls-1" d="M273.42,0C122.43,0,0,122.41,0,273.42c0,120.8,78.34,223.29,187,259.44,13.66,2.53,18.68-5.93,18.68-13.15,0-6.52-.25-28.06-.37-50.91-76.06,16.54-92.12-32.26-92.12-32.26-12.43-31.6-30.35-40-30.35-40-24.81-17,1.87-16.63,1.87-16.63,27.45,1.93,41.91,28.18,41.91,28.18,24.39,41.8,64,29.72,79.56,22.73,2.46-17.67,9.54-29.73,17.36-36.56C162.79,387.35,99,363.9,99,259.13c0-29.84,10.68-54.23,28.17-73.38-2.83-6.89-12.19-34.7,2.66-72.36,0,0,23-7.35,75.2,28a259.08,259.08,0,0,1,136.93,0c52.19-35.38,75.12-28,75.12-28,14.88,37.66,5.52,65.47,2.68,72.36,17.53,19.15,28.14,43.54,28.14,73.38,0,105-64,128.14-124.85,134.91,9.81,8.49,18.55,25.12,18.55,50.63,0,36.59-.32,66-.32,75,0,7.28,4.92,15.8,18.78,13.12,108.58-36.2,186.83-138.65,186.83-259.41C546.84,122.4,424.42,0,273.42,0"/><path class="cls-2" d="M103.56,392.57c-.6,1.36-2.74,1.77-4.69.83s-3.09-2.75-2.45-4.11,2.72-1.78,4.71-.85,3.11,2.76,2.43,4.13m11.08,12.35c-1.31,1.21-3.86.65-5.59-1.26s-2.12-4.46-.8-5.69,3.82-.64,5.61,1.27,2.14,4.46.78,5.68m10.78,15.74c-1.68,1.17-4.42.08-6.12-2.35s-1.67-5.35,0-6.52,4.4-.12,6.11,2.3,1.67,5.38,0,6.57m14.76,15.22c-1.5,1.65-4.69,1.21-7-1.05s-3.06-5.33-1.56-7,4.73-1.19,7.08,1,3.1,5.35,1.5,7m20.38,8.83c-.67,2.15-3.74,3.11-6.83,2.2s-5.12-3.44-4.5-5.6,3.74-3.17,6.85-2.2,5.12,3.43,4.48,5.6m22.38,1.64c.07,2.25-2.55,4.12-5.8,4.16s-5.92-1.75-6-4,2.57-4.12,5.84-4.18,5.92,1.75,5.92,4m20.82-3.54c.39,2.19-1.87,4.45-5.1,5.05s-6.11-.77-6.52-2.95,1.9-4.52,5.08-5.1,6.12.76,6.54,3"/></g></g></svg>