<svg xmlns="http://www.w3.org/2000/svg" viewBox="0 0 24 21.59"><defs><style>.cls-1{fill:#fff;}</style></defs><g id="Capa_2" data-name="Capa 2"><g id="Capa_1-2" data-name="Capa 1"><path class="cls-1" d="M3.13.13C2.08.76,0,3.12,0,3.75v1A2.55,2.55,0,0,0,2.33,7.22a2.45,2.45,0,0,0,2.43-2.4,2.41,2.41,0,0,0,2.4,2.4,2.38,2.38,0,0,0,2.36-2.4A2.47,2.47,0,0,0,12,7.22h0a2.47,2.47,0,0,0,2.47-2.4,2.38,2.38,0,0,0,2.36,2.4,2.41,2.41,0,0,0,2.4-2.4,2.45,2.45,0,0,0,2.43,2.4A2.55,2.55,0,0,0,24,4.77v-1c0-.63-2.08-3-3.13-3.62C17.62,0,15.36,0,12,0S4.06.05,3.13.13ZM9.51,6.61a3,3,0,0,1-.47.6,2.78,2.78,0,0,1-3.9,0,2.88,2.88,0,0,1-.45-.59h0a2.7,2.7,0,0,1-.48.59A2.79,2.79,0,0,1,2.26,8,1.17,1.17,0,0,1,2,8c-.1,1.11-.15,2.17-.16,3h0c0,.39,0,.72,0,1.17,0,2.33-.23,7.56,1,8.85a48.61,48.61,0,0,0,9.15.66h0a48.61,48.61,0,0,0,9.15-.66c1.26-1.29,1-6.52,1-8.85,0-.45,0-.78,0-1.17h0c0-.78-.06-1.84-.16-2.95a1.17,1.17,0,0,1-.27,0,2.79,2.79,0,0,1-1.95-.8,2.7,2.7,0,0,1-.48-.59h0a2.88,2.88,0,0,1-.45.59,2.78,2.78,0,0,1-3.9,0,3,3,0,0,1-.47-.6,2.66,2.66,0,0,1-.46.6,2.79,2.79,0,0,1-1.95.8h-.16A2.79,2.79,0,0,1,10,7.21a2.66,2.66,0,0,1-.46-.6ZM7.5,9.2h0a2.65,2.65,0,0,1,2.37,1A18.63,18.63,0,0,1,12,10.05h0a18.63,18.63,0,0,1,2.13.11,2.65,2.65,0,0,1,2.37-1h0c.37,0,1.87,0,2.92,2.94l1.12,4c.83,3-.27,3.07-1.64,3.07a3.07,3.07,0,0,1-3.15-3,24.49,24.49,0,0,1-3.75.27h0a24.49,24.49,0,0,1-3.75-.27,3.07,3.07,0,0,1-3.15,3c-1.37,0-2.47-.07-1.64-3.07l1.12-4C5.63,9.2,7.13,9.2,7.5,9.2ZM12,11.51h0a21.27,21.27,0,0,0-2.52,2.66l1.4-.06v1.22a3.81,3.81,0,0,0,1.12,0h0a3.81,3.81,0,0,0,1.12,0V14.11l1.4.06A21.27,21.27,0,0,0,12,11.51Z"/></g></g></svg>